<svg width="207" height="94" viewBox="0 0 207 94" fill="none" xmlns="http://www.w3.org/2000/svg">
<path d="M2.59766 40.9813V11.0936H14.5644C16.7632 11.0936 18.5971 11.4196 20.0662 12.0714C21.5353 12.7233 22.6395 13.6281 23.3789 14.7858C24.1183 15.9339 24.488 17.257 24.488 18.7553C24.488 19.9228 24.2545 20.9492 23.7875 21.8345C23.3206 22.7101 22.6784 23.4301 21.8612 23.9944C21.0537 24.5489 20.1294 24.943 19.0884 25.1765V25.4683C20.2267 25.517 21.292 25.838 22.2844 26.4315C23.2865 27.025 24.0989 27.8568 24.7215 28.927C25.3442 29.9875 25.6555 31.2523 25.6555 32.7213C25.6555 34.3072 25.2615 35.7228 24.4734 36.9681C23.6951 38.2037 22.5422 39.1814 21.0148 39.9014C19.4873 40.6213 17.6047 40.9813 15.367 40.9813H2.59766ZM8.91668 35.8152H14.0682C15.8292 35.8152 17.1134 35.4795 17.9209 34.8082C18.7284 34.1272 19.1322 33.2224 19.1322 32.0938C19.1322 31.2669 18.9327 30.5372 18.5339 29.9048C18.135 29.2724 17.5658 28.7762 16.8264 28.4162C16.0967 28.0563 15.226 27.8763 14.2142 27.8763H8.91668V35.8152ZM8.91668 23.6004H13.6012C14.4671 23.6004 15.2357 23.4496 15.907 23.148C16.588 22.8366 17.1231 22.3988 17.5123 21.8345C17.9112 21.2702 18.1106 20.5941 18.1106 19.806C18.1106 18.7261 17.7263 17.8553 16.9577 17.1938C16.1989 16.5322 15.119 16.2014 13.718 16.2014H8.91668V23.6004ZM56.1379 21.5573H49.7459C49.6291 20.7303 49.3908 19.9957 49.0308 19.3536C48.6708 18.7018 48.2087 18.1472 47.6444 17.6899C47.0801 17.2327 46.4283 16.8824 45.6889 16.6392C44.9592 16.396 44.1663 16.2744 43.3101 16.2744C41.7632 16.2744 40.4157 16.6587 39.2677 17.4273C38.1197 18.1861 37.2295 19.2952 36.5971 20.7546C35.9647 22.2042 35.6485 23.9652 35.6485 26.0375C35.6485 28.1681 35.9647 29.9583 36.5971 31.4079C37.2392 32.8576 38.1343 33.9521 39.2823 34.6915C40.4303 35.4309 41.7583 35.8006 43.2663 35.8006C44.1128 35.8006 44.896 35.6887 45.6159 35.4649C46.3456 35.2412 46.9926 34.9152 47.5569 34.4872C48.1211 34.0494 48.5881 33.5191 48.9578 32.8965C49.3373 32.2738 49.6 31.5636 49.7459 30.7658L56.1379 30.795C55.9725 32.1668 55.559 33.4899 54.8974 34.7644C54.2456 36.0292 53.3651 37.1627 52.256 38.1648C51.1566 39.1571 49.8432 39.9452 48.3157 40.5289C46.798 41.1029 45.0808 41.3899 43.1642 41.3899C40.4984 41.3899 38.1148 40.7867 36.0133 39.5803C33.9216 38.3739 32.2676 36.6276 31.0515 34.3412C29.8451 32.0549 29.2419 29.287 29.2419 26.0375C29.2419 22.7782 29.8548 20.0055 31.0807 17.7191C32.3066 15.4328 33.9702 13.6913 36.0717 12.4946C38.1732 11.2882 40.5373 10.685 43.1642 10.685C44.896 10.685 46.5013 10.9283 47.9801 11.4147C49.4686 11.9012 50.7869 12.6114 51.9349 13.5454C53.083 14.4696 54.0169 15.6031 54.7369 16.9457C55.4666 18.2883 55.9336 19.8255 56.1379 21.5573ZM71.2641 40.9813H60.6692V11.0936H71.3517C74.358 11.0936 76.9459 11.692 79.1155 12.8887C81.2851 14.0756 82.9536 15.7831 84.1211 18.011C85.2983 20.239 85.8869 22.9047 85.8869 26.0083C85.8869 29.1216 85.2983 31.7971 84.1211 34.0348C82.9536 36.2725 81.2753 37.9896 79.0863 39.1863C76.907 40.383 74.2996 40.9813 71.2641 40.9813ZM66.9882 35.5671H71.0015C72.8694 35.5671 74.4407 35.2363 75.7152 34.5747C76.9994 33.9034 77.9626 32.8673 78.6047 31.4663C79.2566 30.0556 79.5825 28.2362 79.5825 26.0083C79.5825 23.7998 79.2566 21.9951 78.6047 20.5941C77.9626 19.1931 77.0043 18.1618 75.7298 17.5002C74.4553 16.8387 72.884 16.5079 71.016 16.5079H66.9882V35.5671ZM102.111 41.638C99.6012 41.6283 97.4414 41.0105 95.6318 39.7846C93.8319 38.5588 92.4455 36.7832 91.4726 34.458C90.5094 32.1327 90.0327 29.3356 90.0424 26.0667C90.0424 22.8074 90.524 20.0298 91.4872 17.7337C92.4601 15.4377 93.8465 13.6913 95.6464 12.4946C97.456 11.2882 99.611 10.685 102.111 10.685C104.612 10.685 106.762 11.2882 108.562 12.4946C110.371 13.701 111.763 15.4523 112.735 17.7483C113.708 20.0347 114.19 22.8074 114.18 26.0667C114.18 29.3454 113.694 32.1473 112.721 34.4726C111.758 36.7978 110.376 38.5734 108.576 39.7992C106.776 41.0251 104.621 41.638 102.111 41.638ZM102.111 36.3989C103.824 36.3989 105.191 35.5379 106.212 33.8159C107.234 32.0938 107.74 29.5108 107.73 26.0667C107.73 23.7998 107.496 21.9124 107.029 20.4044C106.572 18.8964 105.92 17.7629 105.074 17.004C104.237 16.2452 103.25 15.8658 102.111 15.8658C100.409 15.8658 99.0467 16.717 98.0251 18.4196C97.0036 20.1222 96.4879 22.6712 96.4782 26.0667C96.4782 28.3627 96.7068 30.2794 97.1641 31.8165C97.6311 33.344 98.2878 34.492 99.1342 35.2606C99.9807 36.0195 100.973 36.3989 102.111 36.3989ZM129.456 40.9813H118.861V11.0936H129.544C132.55 11.0936 135.138 11.692 137.307 12.8887C139.477 14.0756 141.146 15.7831 142.313 18.011C143.49 20.239 144.079 22.9047 144.079 26.0083C144.079 29.1216 143.49 31.7971 142.313 34.0348C141.146 36.2725 139.467 37.9896 137.278 39.1863C135.099 40.383 132.492 40.9813 129.456 40.9813ZM125.18 35.5671H129.193C131.061 35.5671 132.633 35.2363 133.907 34.5747C135.191 33.9034 136.155 32.8673 136.797 31.4663C137.448 30.0556 137.774 28.2362 137.774 26.0083C137.774 23.7998 137.448 21.9951 136.797 20.5941C136.155 19.1931 135.196 18.1618 133.922 17.5002C132.647 16.8387 131.076 16.5079 129.208 16.5079H125.18V35.5671ZM161.588 11.0936V40.9813H155.268V17.0916H155.093L148.249 21.3821V15.7782L155.648 11.0936H161.588ZM179.505 10.685C181.042 10.685 182.521 10.9428 183.941 11.4585C185.371 11.9741 186.646 12.7962 187.765 13.9248C188.893 15.0534 189.784 16.5516 190.435 18.4196C191.097 20.2779 191.433 22.5593 191.442 25.264C191.442 27.8033 191.155 30.0702 190.581 32.0646C190.017 34.0494 189.205 35.7374 188.144 37.1286C187.084 38.5199 185.804 39.5803 184.306 40.31C182.808 41.03 181.134 41.3899 179.286 41.3899C177.291 41.3899 175.53 41.0056 174.003 40.237C172.476 39.4587 171.245 38.4031 170.311 37.0702C169.387 35.7276 168.827 34.2196 168.633 32.5462H174.864C175.107 33.6359 175.618 34.4823 176.396 35.0855C177.175 35.679 178.138 35.9757 179.286 35.9757C181.232 35.9757 182.71 35.1293 183.722 33.4364C184.734 31.7338 185.245 29.4037 185.255 26.4461H185.05C184.603 27.3217 184 28.0757 183.241 28.7081C182.482 29.3308 181.611 29.8124 180.628 30.1529C179.656 30.4934 178.619 30.6636 177.52 30.6636C175.759 30.6636 174.188 30.2502 172.806 29.4232C171.425 28.5962 170.335 27.4579 169.537 26.0083C168.74 24.5587 168.341 22.9047 168.341 21.0465C168.331 19.0423 168.793 17.257 169.727 15.6906C170.661 14.1242 171.965 12.8984 173.638 12.013C175.321 11.118 177.277 10.6753 179.505 10.685ZM179.549 15.6468C178.566 15.6468 177.69 15.8803 176.922 16.3473C176.163 16.8143 175.56 17.4419 175.112 18.2299C174.674 19.018 174.46 19.8984 174.47 20.8714C174.47 21.854 174.684 22.7393 175.112 23.5274C175.55 24.3057 176.143 24.9284 176.893 25.3954C177.651 25.8526 178.517 26.0813 179.49 26.0813C180.22 26.0813 180.896 25.9451 181.519 25.6726C182.141 25.4002 182.681 25.0257 183.139 24.5489C183.606 24.0625 183.97 23.5031 184.233 22.8707C184.496 22.2383 184.627 21.567 184.627 20.8568C184.617 19.913 184.394 19.0472 183.956 18.2591C183.518 17.471 182.915 16.8387 182.146 16.3619C181.378 15.8852 180.512 15.6468 179.549 15.6468Z" fill="#372D3B"/>
<path d="M1.97013 87.31V69.3774H4.67579V77.1704H13.6158V69.3774H16.3302V87.31H13.6158V79.4907H4.67579V87.31H1.97013ZM25.7256 87.5814C24.4647 87.5814 23.3643 87.2925 22.4245 86.7146C21.4847 86.1367 20.755 85.3282 20.2355 84.2891C19.7159 83.25 19.4562 82.0359 19.4562 80.6466C19.4562 79.2514 19.7159 78.0314 20.2355 76.9865C20.755 75.9416 21.4847 75.1302 22.4245 74.5523C23.3643 73.9744 24.4647 73.6854 25.7256 73.6854C26.9865 73.6854 28.0868 73.9744 29.0266 74.5523C29.9665 75.1302 30.6962 75.9416 31.2157 76.9865C31.7352 78.0314 31.995 79.2514 31.995 80.6466C31.995 82.0359 31.7352 83.25 31.2157 84.2891C30.6962 85.3282 29.9665 86.1367 29.0266 86.7146C28.0868 87.2925 26.9865 87.5814 25.7256 87.5814ZM25.7343 85.3836C26.5516 85.3836 27.2287 85.1676 27.7658 84.7357C28.3028 84.3037 28.6997 83.7287 28.9566 83.0107C29.2193 82.2927 29.3506 81.5017 29.3506 80.6378C29.3506 79.7797 29.2193 78.9916 28.9566 78.2736C28.6997 77.5498 28.3028 76.969 27.7658 76.5312C27.2287 76.0934 26.5516 75.8744 25.7343 75.8744C24.9113 75.8744 24.2283 76.0934 23.6854 76.5312C23.1483 76.969 22.7485 77.5498 22.4858 78.2736C22.229 78.9916 22.1005 79.7797 22.1005 80.6378C22.1005 81.5017 22.229 82.2927 22.4858 83.0107C22.7485 83.7287 23.1483 84.3037 23.6854 84.7357C24.2283 85.1676 24.9113 85.3836 25.7343 85.3836ZM37.5354 79.3244V87.31H34.9173V73.8605H37.4304V76.0496H37.5967C37.9061 75.3374 38.3906 74.7653 39.0502 74.3334C39.7157 73.9014 40.5534 73.6854 41.5633 73.6854C42.4797 73.6854 43.2824 73.878 43.9712 74.2633C44.66 74.6427 45.1941 75.209 45.5736 75.962C45.953 76.715 46.1427 77.6461 46.1427 78.7552V87.31H43.5246V79.0704C43.5246 78.0956 43.2707 77.3338 42.7629 76.7851C42.255 76.2305 41.5574 75.9533 40.6701 75.9533C40.063 75.9533 39.5231 76.0846 39.0502 76.3473C38.5833 76.61 38.2126 76.9952 37.9382 77.5031C37.6697 78.0051 37.5354 78.6122 37.5354 79.3244ZM54.6887 87.5727C53.603 87.5727 52.634 87.2954 51.7817 86.7408C50.9353 86.1804 50.2698 85.3836 49.7853 84.3504C49.3066 83.3113 49.0673 82.065 49.0673 80.6115C49.0673 79.158 49.3095 77.9146 49.794 76.8814C50.2844 75.8482 50.9557 75.0572 51.808 74.5085C52.6602 73.9598 53.6263 73.6854 54.7062 73.6854C55.541 73.6854 56.2123 73.8255 56.7202 74.1057C57.2339 74.3801 57.6308 74.7011 57.911 75.0689C58.197 75.4366 58.4189 75.7606 58.5765 76.0408H58.7341V69.3774H61.3522V87.31H58.7954V85.2173H58.5765C58.4189 85.5033 58.1912 85.8302 57.8935 86.198C57.6016 86.5657 57.1988 86.8868 56.6851 87.1611C56.1714 87.4355 55.506 87.5727 54.6887 87.5727ZM55.2666 85.3398C56.0197 85.3398 56.656 85.1414 57.1755 84.7444C57.7009 84.3416 58.0978 83.7842 58.3663 83.072C58.6407 82.3598 58.7779 81.5309 58.7779 80.5853C58.7779 79.6513 58.6436 78.834 58.3751 78.1335C58.1066 77.433 57.7125 76.8872 57.193 76.4961C56.6735 76.105 56.0313 75.9095 55.2666 75.9095C54.4786 75.9095 53.8219 76.1138 53.2965 76.5224C52.7711 76.931 52.3742 77.4885 52.1057 78.1948C51.843 78.9012 51.7116 79.698 51.7116 80.5853C51.7116 81.4842 51.8459 82.2927 52.1144 83.0107C52.383 83.7287 52.7799 84.2979 53.3053 84.7182C53.8365 85.1326 54.4903 85.3398 55.2666 85.3398ZM69.0029 87.6077C68.1506 87.6077 67.38 87.4501 66.6912 87.1349C66.0024 86.8138 65.4566 86.3497 65.0538 85.7426C64.6569 85.1355 64.4584 84.3913 64.4584 83.5098C64.4584 82.7509 64.6043 82.1263 64.8962 81.636C65.1881 81.1457 65.5821 80.7575 66.0783 80.4714C66.5745 80.1854 67.129 79.9694 67.742 79.8235C68.3549 79.6775 68.9795 79.5666 69.6158 79.4907C70.4214 79.3973 71.0751 79.3215 71.5772 79.2631C72.0792 79.1989 72.444 79.0967 72.6717 78.9566C72.8993 78.8165 73.0132 78.5889 73.0132 78.2736V78.2123C73.0132 77.4476 72.7972 76.8551 72.3652 76.4348C71.9391 76.0145 71.3028 75.8044 70.4564 75.8044C69.5749 75.8044 68.8803 76 68.3724 76.3911C67.8704 76.7763 67.5231 77.2054 67.3304 77.6782L64.87 77.1178C65.1618 76.3006 65.588 75.641 66.1483 75.1389C66.7146 74.6311 67.3655 74.2633 68.101 74.0357C68.8365 73.8022 69.6099 73.6854 70.4214 73.6854C70.9584 73.6854 71.5275 73.7496 72.1288 73.878C72.7359 74.0006 73.3021 74.2283 73.8275 74.561C74.3587 74.8938 74.7936 75.3695 75.1322 75.9883C75.4707 76.6012 75.64 77.398 75.64 78.3787V87.31H73.0832V85.4712H72.9781C72.8089 85.8098 72.5549 86.1425 72.2164 86.4694C71.8778 86.7963 71.4429 87.0677 70.9117 87.2837C70.3805 87.4997 69.7442 87.6077 69.0029 87.6077ZM69.572 85.5062C70.2958 85.5062 70.9146 85.3632 71.4283 85.0772C71.9478 84.7911 72.3419 84.4175 72.6104 83.9564C72.8847 83.4894 73.0219 82.9903 73.0219 82.4591V80.7254C72.9285 80.8188 72.7476 80.9063 72.479 80.988C72.2164 81.0639 71.9157 81.1311 71.5772 81.1894C71.2386 81.242 70.9088 81.2916 70.5877 81.3383C70.2667 81.3791 69.9981 81.4142 69.7822 81.4434C69.2743 81.5076 68.8102 81.6156 68.3899 81.7673C67.9755 81.9191 67.6427 82.138 67.3917 82.424C67.1466 82.7042 67.024 83.0778 67.024 83.5448C67.024 84.1928 67.2633 84.6831 67.742 85.0159C68.2206 85.3428 68.8307 85.5062 69.572 85.5062ZM100.757 75.209H98.0251C97.92 74.6252 97.7245 74.1115 97.4385 73.6679C97.1524 73.2243 96.8022 72.8477 96.3877 72.5384C95.9733 72.229 95.5092 71.9955 94.9955 71.8379C94.4876 71.6803 93.9477 71.6014 93.3756 71.6014C92.3424 71.6014 91.4171 71.8612 90.5999 72.3807C89.7885 72.9003 89.1464 73.6621 88.6736 74.6661C88.2066 75.6701 87.9731 76.896 87.9731 78.3437C87.9731 79.803 88.2066 81.0347 88.6736 82.0388C89.1464 83.0428 89.7914 83.8017 90.6087 84.3154C91.4259 84.8291 92.3453 85.0859 93.3668 85.0859C93.9331 85.0859 94.4701 85.01 94.978 84.8583C95.4917 84.7006 95.9558 84.4701 96.3702 84.1665C96.7847 83.863 97.1349 83.4923 97.4209 83.0545C97.7128 82.6108 97.9142 82.103 98.0251 81.5309L100.757 81.5397C100.611 82.4211 100.328 83.2325 99.9077 83.9739C99.4932 84.7094 98.9591 85.3457 98.3053 85.8827C97.6574 86.4139 96.916 86.8255 96.0813 87.1173C95.2465 87.4092 94.3359 87.5552 93.3493 87.5552C91.7966 87.5552 90.4131 87.1874 89.1989 86.4519C87.9847 85.7105 87.0274 84.651 86.3269 83.2734C85.6322 81.8958 85.2849 80.2525 85.2849 78.3437C85.2849 76.429 85.6352 74.7858 86.3357 73.414C87.0362 72.0363 87.9935 70.9798 89.2077 70.2442C90.4219 69.5029 91.8024 69.1322 93.3493 69.1322C94.3008 69.1322 95.1881 69.2694 96.0112 69.5438C96.8401 69.8123 97.5844 70.2092 98.244 70.7346C98.9037 71.2541 99.4495 71.8904 99.8814 72.6434C100.313 73.3906 100.605 74.2458 100.757 75.209ZM103.784 87.31V73.8605H106.403V87.31H103.784ZM105.107 71.7853C104.651 71.7853 104.26 71.6336 103.933 71.33C103.612 71.0206 103.452 70.6529 103.452 70.2267C103.452 69.7948 103.612 69.427 103.933 69.1235C104.26 68.8141 104.651 68.6594 105.107 68.6594C105.562 68.6594 105.95 68.8141 106.271 69.1235C106.598 69.427 106.762 69.7948 106.762 70.2267C106.762 70.6529 106.598 71.0206 106.271 71.33C105.95 71.6336 105.562 71.7853 105.107 71.7853ZM121.43 73.8605L116.553 87.31H113.751L108.865 73.8605H111.676L115.082 84.2103H115.222L118.62 73.8605H121.43ZM123.891 87.31V73.8605H126.509V87.31H123.891ZM125.213 71.7853C124.758 71.7853 124.367 71.6336 124.04 71.33C123.719 71.0206 123.558 70.6529 123.558 70.2267C123.558 69.7948 123.719 69.427 124.04 69.1235C124.367 68.8141 124.758 68.6594 125.213 68.6594C125.668 68.6594 126.056 68.8141 126.378 69.1235C126.704 69.427 126.868 69.7948 126.868 70.2267C126.868 70.6529 126.704 71.0206 126.378 71.33C126.056 71.6336 125.668 71.7853 125.213 71.7853ZM135.696 87.5814C134.395 87.5814 133.274 87.2866 132.334 86.6971C131.4 86.1016 130.682 85.2815 130.18 84.2366C129.678 83.1917 129.427 81.995 129.427 80.6466C129.427 79.2806 129.684 78.0752 130.197 77.0303C130.711 75.9795 131.435 75.1594 132.369 74.5698C133.303 73.9802 134.403 73.6854 135.67 73.6854C136.692 73.6854 137.602 73.8751 138.402 74.2546C139.202 74.6282 139.847 75.1535 140.337 75.8307C140.833 76.5078 141.128 77.2988 141.221 78.2036H138.673C138.533 77.5731 138.212 77.0303 137.71 76.5749C137.214 76.1196 136.549 75.892 135.714 75.892C134.984 75.892 134.345 76.0846 133.796 76.4699C133.253 76.8493 132.83 77.3922 132.527 78.0985C132.223 78.799 132.071 79.6279 132.071 80.5853C132.071 81.5659 132.22 82.4124 132.518 83.1245C132.816 83.8367 133.236 84.3883 133.779 84.7795C134.327 85.1706 134.972 85.3661 135.714 85.3661C136.21 85.3661 136.659 85.2756 137.062 85.0947C137.471 84.9079 137.812 84.6423 138.087 84.2979C138.367 83.9535 138.562 83.539 138.673 83.0545H141.221C141.128 83.9243 140.845 84.7006 140.372 85.3836C139.899 86.0666 139.266 86.6037 138.472 86.9948C137.684 87.3859 136.759 87.5814 135.696 87.5814ZM150.757 87.31V69.3774H157.149C158.538 69.3774 159.691 69.6167 160.608 70.0954C161.53 70.5741 162.219 71.2366 162.674 72.083C163.129 72.9236 163.357 73.8956 163.357 74.9988C163.357 76.0963 163.126 77.0624 162.665 77.8971C162.21 78.726 161.521 79.3711 160.599 79.8322C159.682 80.2934 158.529 80.524 157.14 80.524H152.298V78.1948H156.895C157.771 78.1948 158.483 78.0693 159.031 77.8183C159.586 77.5673 159.992 77.2025 160.249 76.7238C160.505 76.2451 160.634 75.6701 160.634 74.9988C160.634 74.3217 160.502 73.735 160.24 73.2388C159.983 72.7427 159.577 72.3632 159.023 72.1005C158.474 71.832 157.753 71.6978 156.86 71.6978H153.463V87.31H150.757ZM159.609 79.2193L164.04 87.31H160.958L156.615 79.2193H159.609ZM171.936 87.5814C170.675 87.5814 169.575 87.2925 168.635 86.7146C167.695 86.1367 166.965 85.3282 166.446 84.2891C165.926 83.25 165.666 82.0359 165.666 80.6466C165.666 79.2514 165.926 78.0314 166.446 76.9865C166.965 75.9416 167.695 75.1302 168.635 74.5523C169.575 73.9744 170.675 73.6854 171.936 73.6854C173.197 73.6854 174.297 73.9744 175.237 74.5523C176.177 75.1302 176.906 75.9416 177.426 76.9865C177.945 78.0314 178.205 79.2514 178.205 80.6466C178.205 82.0359 177.945 83.25 177.426 84.2891C176.906 85.3282 176.177 86.1367 175.237 86.7146C174.297 87.2925 173.197 87.5814 171.936 87.5814ZM171.945 85.3836C172.762 85.3836 173.439 85.1676 173.976 84.7357C174.513 84.3037 174.91 83.7287 175.167 83.0107C175.43 82.2927 175.561 81.5017 175.561 80.6378C175.561 79.7797 175.43 78.9916 175.167 78.2736C174.91 77.5498 174.513 76.969 173.976 76.5312C173.439 76.0934 172.762 75.8744 171.945 75.8744C171.121 75.8744 170.439 76.0934 169.896 76.5312C169.359 76.969 168.959 77.5498 168.696 78.2736C168.439 78.9916 168.311 79.7797 168.311 80.6378C168.311 81.5017 168.439 82.2927 168.696 83.0107C168.959 83.7287 169.359 84.3037 169.896 84.7357C170.439 85.1676 171.121 85.3836 171.945 85.3836ZM182.664 73.8605L185.633 79.0967L188.627 73.8605H191.49L187.296 80.5853L191.525 87.31H188.662L185.633 82.284L182.612 87.31H179.74L183.925 80.5853L179.792 73.8605H182.664ZM199.314 87.5814C198.053 87.5814 196.953 87.2925 196.013 86.7146C195.073 86.1367 194.344 85.3282 193.824 84.2891C193.304 83.25 193.045 82.0359 193.045 80.6466C193.045 79.2514 193.304 78.0314 193.824 76.9865C194.344 75.9416 195.073 75.1302 196.013 74.5523C196.953 73.9744 198.053 73.6854 199.314 73.6854C200.575 73.6854 201.675 73.9744 202.615 74.5523C203.555 75.1302 204.285 75.9416 204.804 76.9865C205.324 78.0314 205.584 79.2514 205.584 80.6466C205.584 82.0359 205.324 83.25 204.804 84.2891C204.285 85.3282 203.555 86.1367 202.615 86.7146C201.675 87.2925 200.575 87.5814 199.314 87.5814ZM199.323 85.3836C200.14 85.3836 200.817 85.1676 201.354 84.7357C201.891 84.3037 202.288 83.7287 202.545 83.0107C202.808 82.2927 202.939 81.5017 202.939 80.6378C202.939 79.7797 202.808 78.9916 202.545 78.2736C202.288 77.5498 201.891 76.969 201.354 76.5312C200.817 76.0934 200.14 75.8744 199.323 75.8744C198.5 75.8744 197.817 76.0934 197.274 76.5312C196.737 76.969 196.337 77.5498 196.074 78.2736C195.817 78.9916 195.689 79.7797 195.689 80.6378C195.689 81.5017 195.817 82.2927 196.074 83.0107C196.337 83.7287 196.737 84.3037 197.274 84.7357C197.817 85.1676 198.5 85.3836 199.323 85.3836Z" fill="#372D3B"/>
</svg>
